# xmcd
#
# Track frame offsets:
#	150
#	11944
#	23652
#	36949
#	44876
#	56141
#	69377
#	82260
#	92902
#	103312
#	115942
#	128971
#	142182
#	154054
#	168295
#	179027
#	190210
#	199167
#	208833
#	221902
#	231900
#	245222
#	255714
#
# Disc length: 3593 seconds
#
# Revision: 0
# Processed by: cddbd v1.5.2PL0 Copyright (c) Steve Scherf et al.
# Submitted via: dBpowerAMP V4.0
#
DISCID=760e0717
DTITLE=Various Artist - Country's Finest
DYEAR=1999
DGENRE=Country
TTITLE0=Walkin' after midnight (Patsy Cline)
TTITLE1=Elvira (Kenny Rogers)
TTITLE2=Ruby Tuesday (Don Williams)
TTITLE3=Jambalaya (George Jones)
TTITLE4=Love is a golden ring (Frankie Laine)
TTITLE5=I never promised you a rose garden (Lyn Anderson)
TTITLE6=Moonlight gambler (Frankie Laine)
TTITLE7=Home made lies (Kenny Rogers)
TTITLE8=Wings of a dove (Ferlin Husky)
TTITLE9=Making believe (Kitty Wells)
TTITLE10=(I'd be) a legend in my time (Ferlin Husky)
TTITLE11=I just don't understand (Willie Nelson)
TTITLE12=In care of the blues (Patsy Cline)
TTITLE13=Open pit mine (George Jones)
TTITLE14=Stop, look and listen (Patsy Cline)
TTITLE15=San Antonio Rose (Ferlin Husky)
TTITLE16=Please don't let that women get me (George Jones)
TTITLE17=Six days on the road (Dave Dudley)
TTITLE18=Little Blossom (Dolly Parton)
TTITLE19=I didn't sleep a wink (Willie Nelson)
TTITLE20=Where do we go from here (Don Williams)
TTITLE21=Dream Baby (Waylon Jennings)
TTITLE22=Wedding bells (George Jones)
EXTD=
EXTT0=
EXTT1=
EXTT2=
EXTT3=
EXTT4=
EXTT5=
EXTT6=
EXTT7=
EXTT8=
EXTT9=
EXTT10=
EXTT11=
EXTT12=
EXTT13=
EXTT14=
EXTT15=
EXTT16=
EXTT17=
EXTT18=
EXTT19=
EXTT20=
EXTT21=
EXTT22=
PLAYORDER=
